HIERARCHY
ROOT hip
{
  OFFSET 86.8379 73.4872 -26.5772
  CHANNELS 6 Xposition Yposition Zposition Zrotation Xrotation Yrotation
  JOINT abdomen
  {
    OFFSET 0 20.6881 -0.73152
    CHANNELS 3 Zrotation Xrotation Yrotation
    JOINT chest
    {
      OFFSET 0 11.7043 -0.48768
      CHANNELS 3 Zrotation Xrotation Yrotation
      JOINT neck
      {
        OFFSET 0 22.1894 -2.19456
        CHANNELS 3 Zrotation Xrotation Yrotation
        JOINT head
        {
          OFFSET -0.24384 7.07133 1.2192
          CHANNELS 3 Zrotation Xrotation Yrotation
          JOINT leftEye
          {
            OFFSET 4.14528 8.04674 8.04672
            CHANNELS 3 Zrotation Xrotation Yrotation
            End Site
            {
              OFFSET 1 0 0
            }
          }
          JOINT rightEye
          {
            OFFSET -3.6576 8.04674 8.04672
            CHANNELS 3 Zrotation Xrotation Yrotation
            End Site
            {
              OFFSET 1 0 0
            }
          }
        }
      }
      JOINT rCollar
      {
        OFFSET -2.68224 19.2634 -4.8768
        CHANNELS 3 Zrotation Xrotation Yrotation
        JOINT rShldr
        {
          OFFSET -8.77824 -1.95073 1.46304
          CHANNELS 3 Zrotation Xrotation Yrotation
          JOINT rForeArm
          {
            OFFSET -28.1742 -1.7115 0.48768
            CHANNELS 3 Zrotation Xrotation Yrotation
            JOINT rHand
            {
              OFFSET -22.5879 0.773209 7.07136
              CHANNELS 3 Zrotation Xrotation Yrotation
              JOINT rThumb1
              {
                OFFSET -1.2192 -0.487915 3.41376
                CHANNELS 3 Zrotation Xrotation Yrotation
                JOINT rThumb2
                {
                  OFFSET -3.37035 -0.52449 3.41376
                  CHANNELS 3 Zrotation Xrotation Yrotation
                  End Site
                  {
                    OFFSET -1.78271 -1.18214 1.43049
                  }
                }
              }
              JOINT rIndex1
              {
                OFFSET -7.75947 0.938293 5.60832
                CHANNELS 3 Zrotation Xrotation Yrotation
                JOINT rIndex2
                {
                  OFFSET -2.54057 -0.884171 1.56538
                  CHANNELS 3 Zrotation Xrotation Yrotation
                  End Site
                  {
                    OFFSET -1.62519 -0.234802 1.16502
                  }
                }
              }
              JOINT rMid1
              {
                OFFSET -8.24714 1.18213 3.41376
                CHANNELS 3 Zrotation Xrotation Yrotation
                JOINT rMid2
                {
                  OFFSET -3.10165 -0.590103 1.0647
                  CHANNELS 3 Zrotation Xrotation Yrotation
                  End Site
                  {
                    OFFSET -2.48547 -0.328903 0.83742
                  }
                }
              }
              JOINT rRing1
              {
                OFFSET -8.82822 0.546677 1.51678
                CHANNELS 3 Zrotation Xrotation Yrotation
                JOINT rRing2
                {
                  OFFSET -2.60934 -0.819778 -0.0198488
                  CHANNELS 3 Zrotation Xrotation Yrotation
                  End Site
                  {
                    OFFSET -2.33842 -0.294052 0.168128
                  }
                }
              }
              JOINT rPinky1
              {
                OFFSET -8.27202 -0.0477905 -0.4584
                CHANNELS 3 Zrotation Xrotation Yrotation
                JOINT rPinky2
                {
                  OFFSET -1.82734 -0.647385 -0.700984
                  CHANNELS 3 Zrotation Xrotation Yrotation
                  End Site
                  {
                    OFFSET -1.69225 -0.51767 -0.607171
                  }
                }
              }
            }
          }
        }
      }
      JOINT lCollar
      {
        OFFSET 2.68224 19.2634 -4.8768
        CHANNELS 3 Zrotation Xrotation Yrotation
        JOINT lShldr
        {
          OFFSET 8.77824 -1.95073 1.46304
          CHANNELS 3 Zrotation Xrotation Yrotation
          JOINT lForeArm
          {
            OFFSET 28.1742 -1.7115 0.48768
            CHANNELS 3 Zrotation Xrotation Yrotation
            JOINT lHand
            {
              OFFSET 22.5879 0.773209 7.07136
              CHANNELS 3 Zrotation Xrotation Yrotation
              JOINT lThumb1
              {
                OFFSET 1.2192 -0.487915 3.41376
                CHANNELS 3 Zrotation Xrotation Yrotation
                JOINT lThumb2
                {
                  OFFSET 3.37035 -0.52449 3.41376
                  CHANNELS 3 Zrotation Xrotation Yrotation
                  End Site
                  {
                    OFFSET 1.78271 -1.18214 1.43049
                  }
                }
              }
              JOINT lIndex1
              {
                OFFSET 7.75947 0.938293 5.60832
                CHANNELS 3 Zrotation Xrotation Yrotation
                JOINT lIndex2
                {
                  OFFSET 2.54057 -0.884171 1.56538
                  CHANNELS 3 Zrotation Xrotation Yrotation
                  End Site
                  {
                    OFFSET 1.62519 -0.234802 1.16502
                  }
                }
              }
              JOINT lMid1
              {
                OFFSET 8.24714 1.18213 3.41376
                CHANNELS 3 Zrotation Xrotation Yrotation
                JOINT lMid2
                {
                  OFFSET 3.10165 -0.590103 1.0647
                  CHANNELS 3 Zrotation Xrotation Yrotation
                  End Site
                  {
                    OFFSET 2.48547 -0.328903 0.83742
                  }
                }
              }
              JOINT lRing1
              {
                OFFSET 8.82822 0.546677 1.51678
                CHANNELS 3 Zrotation Xrotation Yrotation
                JOINT lRing2
                {
                  OFFSET 2.60934 -0.819778 -0.0198488
                  CHANNELS 3 Zrotation Xrotation Yrotation
                  End Site
                  {
                    OFFSET 2.33842 -0.294052 0.168128
                  }
                }
              }
              JOINT lPinky1
              {
                OFFSET 8.27202 -0.0477905 -0.4584
                CHANNELS 3 Zrotation Xrotation Yrotation
                JOINT lPinky2
                {
                  OFFSET 1.82734 -0.647385 -0.700984
                  CHANNELS 3 Zrotation Xrotation Yrotation
                  End Site
                  {
                    OFFSET 1.69225 -0.51767 -0.607171
                  }
                }
              }
            }
          }
        }
      }
    }
  }
  JOINT rButtock
  {
    OFFSET -8.77824 4.35084 1.2192
    CHANNELS 3 Zrotation Xrotation Yrotation
    JOINT rThigh
    {
      OFFSET 0 -1.70687 -2.19456
      CHANNELS 3 Zrotation Xrotation Yrotation
      JOINT rShin
      {
        OFFSET 0 -36.8199 0.73152
        CHANNELS 3 Zrotation Xrotation Yrotation
        JOINT rFoot
        {
          OFFSET 0.73152 -45.1104 -5.12064
          CHANNELS 3 Zrotation Xrotation Yrotation
          End Site
          {
            OFFSET -1.1221 -3.69964 12.103
          }
        }
      }
    }
  }
  JOINT lButtock
  {
    OFFSET 8.77824 4.35084 1.2192
    CHANNELS 3 Zrotation Xrotation Yrotation
    JOINT lThigh
    {
      OFFSET 0 -1.70687 -2.19456
      CHANNELS 3 Zrotation Xrotation Yrotation
      JOINT lShin
      {
        OFFSET 0 -36.8199 0.73152
        CHANNELS 3 Zrotation Xrotation Yrotation
        JOINT lFoot
        {
          OFFSET -0.73152 -45.1104 -5.12064
          CHANNELS 3 Zrotation Xrotation Yrotation
          End Site
          {
            OFFSET 1.1221 -3.69964 12.103
          }
        }
      }
    }
  }
}
MOTION
Frames:	6
Frame Time:	0.00833333
36.3887 85.0159 69.1226 -0.0307803 0.000155242 0.0005364 0.0404824 0.000270404 0.00114435 0.0111571 0.000489939 0.00193269 -4.32658e-016 0 -1.63066e-017 -1.31384e-015 3.18055e-015 -4.65902e-017 -0 0 0 -0 0 0 -1.50432e-016 -2.32951e-018 1.49089e-016 -2.40852e-015 -3.72721e-016 7.95139e-016 -7.93648e-014 2.00773e-014 0 -8.93034e-013 -3.71479e-014 -3.81667e-014 -2.11143e-012 -3.40982e-014 -7.31528e-014 -3.66241e-012 -5.725e-014 -1.35969e-013 -2.10672e-012 -3.4191e-014 -7.95139e-014 7.73091 5.47488 0.417314 -2.11199e-012 -3.40916e-014 -7.63333e-014 2.90554 0.965183 0.102902 -2.10257e-012 -3.39922e-014 -7.87187e-014 10.2786 0.731801 0.0259123 -2.11288e-012 -3.26007e-014 -7.63333e-014 2.22167 -0.733487 -0.20892 -2.4715e-016 -2.32951e-018 -1.49089e-016 -6.33587e-015 -9.93923e-017 -1.19271e-015 -7.83709e-014 -2.44505e-014 -9.54166e-015 -8.97463e-013 1.66979e-014 -2.54444e-014 -2.11287e-012 -1.82002e-014 -7.95139e-014 -3.64412e-012 -3.49861e-014 -1.36764e-013 -2.11904e-012 -1.55052e-014 -7.31528e-014 -7.73091 5.47488 -0.417314 -2.11268e-012 -1.799e-014 -7.63333e-014 -2.90554 0.965183 -0.102902 -2.12088e-012 -1.80894e-014 -8.11041e-014 -10.2786 0.731801 -0.0259123 -2.10513e-012 -1.63003e-014 -8.5875e-014 -2.22167 -0.733487 0.20892 -2.03217e-016 0 -3.88251e-019 0.554638 -3.16496 -0.043685 -0.00574518 0.179608 -0.0505575 -0.523876 2.98421 0.121168 2.03217e-016 0 3.88251e-019 -0.493038 -3.01454 0.0399654 0.00619332 -0.0928794 0.054563 0.523461 3.10627 -0.123626 
34.7642 83.5341 66.5659 2.51917 -0.969818 -19.2212 -1.9388 -0.339579 -0.815697 0.225325 0.774098 -0.235559 -3.23721 3.26648 -2.94701 7.75161 -1.92951 -5.54116 -0 0 0 -0 0 0 2.3012e-015 -2.12359e-014 -2.5328e-014 20.6802 3.76416 -3.42021 -4.8989 -2.38019 7.47679 0.0714861 5.93673 0.818262 2.86953e-010 1.56576e-010 -9.76891e-011 4.94103e-010 2.71052e-010 -1.74256e-010 2.86959e-010 1.56574e-010 -9.7698e-011 7.73091 5.47488 0.417314 2.86951e-010 1.56572e-010 -9.76896e-011 2.90554 0.965183 0.102902 2.86961e-010 1.56575e-010 -9.76985e-011 10.2786 0.731801 0.0259123 2.86951e-010 1.56577e-010 -9.76971e-011 2.22167 -0.733487 -0.20892 2.16964e-015 -2.12331e-014 -2.5616e-014 -21.6876 2.39521 4.7226 3.56013 -1.50546 -5.67636 -0.0987552 6.98301 -0.955306 6.54494e-011 -1.26227e-010 3.48786e-011 1.13206e-010 -2.18507e-010 5.88401e-011 6.54449e-011 -1.26222e-010 3.48895e-011 -7.73091 5.47488 -0.417314 6.54504e-011 -1.26224e-010 3.48809e-011 -2.90554 0.965183 -0.102902 6.54413e-011 -1.26224e-010 3.48775e-011 -10.2786 0.731801 -0.0259123 6.54556e-011 -1.26224e-010 3.48724e-011 -2.22167 -0.733487 0.20892 -2.03217e-016 0 -3.88251e-019 -0.865627 -6.80049 1.50408 0.0220588 7.97805 0.107003 -0.904624 -1.51843 -4.69007 2.03217e-016 0 3.88251e-019 1.34957 -6.69468 -2.02725 -0.0131191 6.49641 -0.0767334 0.72897 -1.44072 2.87125 
34.7391 83.5368 66.5441 4.56194 -1.62904 -39.5507 -4.03724 -0.696745 -1.67023 0.451954 1.59024 -0.484053 -6.27169 6.66753 -6.07424 15.512 -3.91236 -11.3729 -0 0 0 -0 0 0 4.62245e-015 -2.7834e-014 -4.60559e-014 43.0344 7.69161 -7.0827 -9.40685 -4.76011 15.4197 -0.0411975 12.2104 1.71325 5.83289e-010 3.3093e-010 -2.10077e-010 1.00423e-009 5.72723e-010 -3.74059e-010 5.83296e-010 3.30927e-010 -2.10089e-010 7.73091 5.47488 0.417314 5.83285e-010 3.30922e-010 -2.10075e-010 2.90554 0.965183 0.102902 5.83296e-010 3.30927e-010 -2.10091e-010 10.2786 0.731801 0.0259123 5.83285e-010 3.3093e-010 -2.1009e-010 2.22167 -0.733487 -0.20892 4.45047e-015 -2.78282e-014 -4.63355e-014 -45.0273 4.88262 9.72624 6.99871 -3.04618 -11.6859 0.057666 14.3807 -2.01666 1.07786e-010 -2.28498e-010 9.69445e-011 1.87005e-010 -3.95354e-010 1.65126e-010 1.07783e-010 -2.28491e-010 9.69602e-011 -7.73091 5.47488 -0.417314 1.07787e-010 -2.28492e-010 9.69459e-011 -2.90554 0.965183 -0.102902 1.07777e-010 -2.28493e-010 9.69441e-011 -10.2786 0.731801 -0.0259123 1.0779e-010 -2.28494e-010 9.69385e-011 -2.22167 -0.733487 0.20892 -2.03217e-016 0 -3.88251e-019 -2.14893 -10.6287 3.17402 0.0031333 16.2205 0.28261 -2.12929 -6.19256 -9.83551 2.03217e-016 0 3.88251e-019 3.00518 -10.5629 -4.26818 3.00874e-005 13.4631 -0.220604 1.46209 -6.22989 6.05152 
34.7026 83.5406 66.5223 6.02927 -1.64804 -57.6934 -5.92644 -1.01845 -2.44972 0.672913 2.32116 -0.71106 -8.69563 9.69505 -8.95558 22.1482 -5.5721 -16.6952 -0 0 0 -0 0 0 7.20447e-015 -6.3703e-014 -7.62821e-014 63.4027 11.1301 -10.4369 -12.8755 -6.65525 22.5713 -0.315821 17.7953 2.56439 8.65082e-010 4.69796e-010 -2.92921e-010 1.48963e-009 8.13271e-010 -5.22497e-010 8.6509e-010 4.69792e-010 -2.92935e-010 7.73091 5.47488 0.417314 8.65077e-010 4.69784e-010 -2.92916e-010 2.90554 0.965183 0.102902 8.65089e-010 4.69792e-010 -2.92938e-010 10.2786 0.731801 0.0259123 8.65078e-010 4.69796e-010 -2.92939e-010 2.22167 -0.733487 -0.20892 7.00323e-015 -6.36947e-014 -7.655e-014 -66.2413 6.99003 14.2636 9.79796 -4.33939 -17.0736 0.443924 20.9249 -3.04569 2.00574e-010 -3.78644e-010 1.04795e-010 3.46906e-010 -6.5545e-010 1.76794e-010 2.00573e-010 -3.78635e-010 1.04815e-010 -7.73091 5.47488 -0.417314 2.00576e-010 -3.78637e-010 1.04795e-010 -2.90554 0.965183 -0.102902 2.00566e-010 -3.78637e-010 1.04795e-010 -10.2786 0.731801 -0.0259123 2.00577e-010 -3.78639e-010 1.04789e-010 -2.22167 -0.733487 0.20892 -2.03217e-016 0 -3.88251e-019 -3.10126 -14.0329 4.70854 -0.0603059 23.5743 0.457172 -3.93741 -10.2086 -14.5424 2.03217e-016 0 3.88251e-019 4.218 -13.9856 -6.3078 0.0431876 19.6746 -0.358795 2.57776 -10.413 9.00746 
34.6634 83.5405 66.474 7.01156 -1.2663 -70.3472 -7.27278 -1.25223 -3.04127 0.866523 2.83918 -0.883877 -10.2896 11.883 -11.1186 26.7386 -6.62267 -20.676 -0 0 0 -0 0 0 1.04384e-014 -1.72749e-013 -1.30254e-013 77.8456 13.4996 -12.8542 -15.0108 -7.79969 27.6109 -0.613 21.6726 3.20164 1.11052e-009 5.19941e-010 -3.01905e-010 1.91323e-009 9.01013e-010 -5.42523e-010 1.11053e-009 5.19938e-010 -3.01921e-010 7.73091 5.47488 0.417314 1.11052e-009 5.19928e-010 -3.01898e-010 2.90554 0.965183 0.102902 1.11053e-009 5.19938e-010 -3.01923e-010 10.2786 0.731801 0.0259123 1.11052e-009 5.19942e-010 -3.01924e-010 2.22167 -0.733487 -0.20892 1.02358e-014 -1.7274e-013 -1.30502e-013 -81.3104 8.33252 17.5429 11.6138 -5.18143 -20.8649 0.859591 25.359 -3.81933 4.19493e-010 -6.4848e-010 -2.28936e-011 7.22065e-010 -1.12367e-009 -4.80812e-011 4.19492e-010 -6.48471e-010 -2.28714e-011 -7.73091 5.47488 -0.417314 4.19496e-010 -6.48472e-010 -2.28936e-011 -2.90554 0.965183 -0.102902 4.19485e-010 -6.48473e-010 -2.28936e-011 -10.2786 0.731801 -0.0259123 4.19495e-010 -6.48475e-010 -2.29e-011 -2.22167 -0.733487 0.20892 -2.03217e-016 0 -3.88251e-019 -3.65768 -16.4122 5.8089 -0.134826 28.707 0.595537 -5.59984 -12.8964 -17.9048 2.03217e-016 0 3.88251e-019 4.91346 -16.3595 -7.71369 0.092849 23.9986 -0.463757 3.63813 -13.2008 11.2433 
34.6433 83.5345 66.4205 7.4429 -1.0215 -75.337 -7.8503 -1.37057 -3.37702 1.02337 3.0625 -0.982684 -11.053 12.9589 -12.2065 28.7963 -6.95032 -22.7386 -0 0 0 -0 0 0 1.76934e-014 -4.28191e-013 -2.42001e-013 83.5464 14.4746 -13.8361 -15.7938 -8.20541 29.6097 -0.752148 23.1473 3.45714 1.3519e-009 4.42023e-010 -2.05894e-010 2.33108e-009 7.684e-010 -3.80829e-010 1.35191e-009 4.42023e-010 -2.05912e-010 7.73091 5.47488 0.417314 1.3519e-009 4.42012e-010 -2.05888e-010 2.90554 0.965183 0.102902 1.35191e-009 4.42021e-010 -2.0591e-010 10.2786 0.731801 0.0259123 1.3519e-009 4.42025e-010 -2.05911e-010 2.22167 -0.733487 -0.20892 1.75341e-014 -4.28183e-013 -2.42214e-013 -87.4214 8.6801 19.0102 12.3162 -5.50903 -22.3992 1.03968 26.8666 -4.10282 8.93893e-010 -1.18711e-009 -3.94452e-010 1.53365e-009 -2.05895e-009 -6.99092e-010 8.93892e-010 -1.1871e-009 -3.9443e-010 -7.73091 5.47488 -0.417314 8.93896e-010 -1.1871e-009 -3.94453e-010 -2.90554 0.965183 -0.102902 8.93886e-010 -1.1871e-009 -3.94453e-010 -10.2786 0.731801 -0.0259123 8.93895e-010 -1.1871e-009 -3.9446e-010 -2.22167 -0.733487 0.20892 -2.03217e-016 0 -3.88251e-019 -3.85933 -17.3856 6.23929 -0.171457 30.7323 0.655863 -6.34139 -13.9668 -19.1957 2.03217e-016 0 3.88251e-019 5.16238 -17.3138 -8.11558 0.117186 25.6777 -0.50711 4.16321 -14.114 12.3782 
